<?xml version="1.0" encoding="utf-8"?>
<!-- Generator: Adobe Illustrator 19.0.0, SVG Export Plug-In . SVG Version: 6.00 Build 0)  -->
<svg version="1.1" id="Layer_1" xmlns="http://www.w3.org/2000/svg" xmlns:xlink="http://www.w3.org/1999/xlink" x="0px" y="0px"
	 viewBox="0 0 500 500" style="enable-background:new 0 0 500 500;" xml:space="preserve">
<style type="text/css">
	.st0{fill:#7D2982;}
	.st1{fill:#FFFFFF;}
</style>
<g id="XMLID_1_">
	<path id="XMLID_3_" class="st0" d="M193.1,376.5c0,0,0,19.8,0,29.7c0,9.9-2.4,19.7-9.1,26.2c15.3-6.5,16.5-16.5,16.5-24.8
		c0-8.6,0-29.4,0-29.4h21.7l-5.3,22.2h16.2c-0.3,20.4,0.7,31.3-17.4,30.4c22.9,5.3,24.4-8.9,25.5-31.8h-16l5.2-22.5H193.1z"/>
	<path id="XMLID_4_" class="st0" d="M291.1,431.7v-41.9h8.9c0,16.3-2.2,33.9,17.6,40.4c-11.9-12.9-9.9-33.8-9.9-40.4h11.6v-1.6
		h-28.2v-14.5h-7.8v14.5h-28.2v1.6h12c0,6.6,2,27.5-9.9,40.4c19.8-6.5,17.6-24.1,17.6-40.4h8.6v41.9H291.1z"/>
	<path id="XMLID_5_" class="st0" d="M394.3,377.4v-1.1H358c0,20.8,1.1,41.2-9.9,55.2c17-5.6,17.4-24.6,17.1-37.2H385l0,0.6
		c0.1,4.7-1,14.5-4.8,20.8c-2.9-4.4-4.3-16.3-4.3-16.3l-8.3,1.2c3.2,9.1,10.2,18.8,10.2,18.8s-3.9,6.1-11,11.7
		c9.5-2.8,14.9-8.1,14.9-8.1s4.4,6.3,10.5,8c-4.3-3.6-7.1-6.8-8.6-10c6.3-5.2,9.7-19.6,9.7-26.8c0-0.4,0-1.6,0-1.6h-28v-15
		c0-0.3,0-0.3,0.5-0.3L394.3,377.4L394.3,377.4z"/>
	<path id="XMLID_6_" class="st0" d="M352.7,390.4h-6.3V374h-6.8v16.4h-8.2v1.1h8.2v20.9c0,0-2.3,0.9-8.6,1l1.8,5.4
		c10.4-1.7,16.1-5.8,19.1-10.7c-2.2,1.8-5.6,2.7-5.6,2.7v-19.3h6.3L352.7,390.4L352.7,390.4z"/>
	<ellipse id="XMLID_7_" class="st0" cx="366.6" cy="337" rx="13.3" ry="17.6"/>
	<polygon id="XMLID_8_" class="st0" points="329.3,342.5 329.3,310.2 304.9,342.5 	"/>
	<path id="XMLID_12_" class="st0" d="M104.9,365.4h290.1V67.5L104.9,365.4z M343.2,344.1h-7.4V356h-6.5v-11.9h-28.6l35.2-46.7v45.1
		h7.4L343.2,344.1L343.2,344.1z M366.5,356.4c-10.8-0.6-19.6-6.3-19.6-27.9c0-34.2,22.9-37.3,33.4-25.9c2.7,2.9,3.8,5.7,4.2,9.1
		c0,0.4-1.4,0.4-1.5,0c-4.4-14.4-17.6-15.2-24.5-7.8c-4.8,5.1-5.1,17.1-5.1,19.2c0,0.2,0.2,0.3,0.3,0.1c1.1-1.6,5.5-6.2,15.1-5.7
		c8.9,0.4,17.4,7.5,17.4,20.5C386.2,348.5,376.4,357,366.5,356.4z"/>
	<path id="XMLID_15_" class="st1" d="M335.8,297.4l-35.2,46.7h28.6V356h6.5v-11.9h7.4v-1.6h-7.4L335.8,297.4L335.8,297.4z
		 M329.3,342.5h-24.4l24.4-32.3V342.5z"/>
	<path id="XMLID_18_" class="st1" d="M368.7,317.6c-9.6-0.4-14,4.1-15.1,5.7c-0.1,0.1-0.3,0.1-0.3-0.1c0-2.1,0.4-14.1,5.1-19.2
		c6.9-7.5,20.1-6.6,24.5,7.8c0.1,0.3,1.5,0.3,1.5,0c-0.4-3.4-1.5-6.1-4.2-9.1c-10.5-11.4-33.4-8.3-33.4,25.9
		c0,21.6,8.8,27.3,19.6,27.9c9.9,0.6,19.6-7.9,19.6-18.3C386.2,325.1,377.7,318,368.7,317.6z M366.6,354.6
		c-7.3,0-13.3-7.9-13.3-17.6c0-9.7,5.9-17.6,13.3-17.6s13.3,7.9,13.3,17.6C379.9,346.7,373.9,354.6,366.6,354.6z"/>
</g>
</svg>
